<svg xmlns="http://www.w3.org/2000/svg" version="1.1" xmlns:xlink="http://www.w3.org/1999/xlink" xmlns:svgjs="http://svgjs.com/svgjs" width="1908" height="1080" preserveAspectRatio="none" viewBox="0 0 1908 1080"><g mask="url(&quot;#SvgjsMask1126&quot;)" fill="none"><rect width="1908" height="1080" x="0" y="0" fill="url(#SvgjsLinearGradient1127)"></rect><path d="M1710.698,821.053C1804.351,824.8,1904.311,794.359,1949.392,712.184C1993.281,632.182,1959.567,535.82,1908.755,460.026C1864.261,393.657,1790.585,354.555,1710.698,356.138C1633.573,357.666,1566.162,401.886,1525.784,467.614C1483.173,536.976,1465.206,622.191,1502.943,694.321C1543.247,771.358,1623.825,817.577,1710.698,821.053" fill="rgba(72, 28, 142, 0.4)" class="triangle-float2"></path><path d="M1512.164,854.969C1627.703,855.232,1753.819,825.763,1807.646,723.528C1859.215,625.58,1800.979,513.824,1740.636,421.023C1687.201,338.846,1609.873,276.932,1512.164,269.109C1397.757,259.949,1272.476,282.189,1210.127,378.55C1143.412,481.659,1153.249,618.465,1219.006,722.187C1280.57,819.294,1397.186,854.707,1512.164,854.969" fill="rgba(72, 28, 142, 0.4)" class="triangle-float3"></path><path d="M198.92 1033.94 a204.31 204.31 0 1 0 408.62 0 a204.31 204.31 0 1 0 -408.62 0z" fill="rgba(72, 28, 142, 0.4)" class="triangle-float2"></path><path d="M922.57 519.42 a296.48 296.48 0 1 0 592.96 0 a296.48 296.48 0 1 0 -592.96 0z" fill="rgba(72, 28, 142, 0.4)" class="triangle-float3"></path><path d="M81.43559191849252 794.9662804956372L231.5841477602337 802.8352328698586 168.31329840069517 573.6779229201361z" fill="rgba(72, 28, 142, 0.4)" class="triangle-float1"></path><path d="M-199.7380995492195 520.6598960800909L31.326089334410085 721.5209310608935 232.18712431521277 490.456742177264 1.1229354315831586 289.5957071964613z" fill="rgba(72, 28, 142, 0.4)" class="triangle-float2"></path><path d="M553.4830182469293 190.08184431228673L543.4554873459391-1.2548434499248629 362.14633048471774 200.10937521327688z" fill="rgba(72, 28, 142, 0.4)" class="triangle-float2"></path><path d="M-25.92 454.24 a291.06 291.06 0 1 0 582.12 0 a291.06 291.06 0 1 0 -582.12 0z" fill="rgba(72, 28, 142, 0.4)" class="triangle-float3"></path><path d="M750.9347251628586 1028.4441516531585L722.9790943335968 798.9559398535985 559.4834172727706 917.7425023833193z" fill="rgba(72, 28, 142, 0.4)" class="triangle-float2"></path></g><defs><mask id="SvgjsMask1126"><rect width="1908" height="1080" fill="#ffffff"></rect></mask><linearGradient x1="10.85%" y1="119.17%" x2="89.15%" y2="-19.17%" gradientUnits="userSpaceOnUse" id="SvgjsLinearGradient1127"><stop stop-color="rgba(45, 14, 71, 1)" offset="0.19"></stop><stop stop-color="#00459e" offset="1"></stop></linearGradient><style>
            @keyframes float1 {
                0%{transform: translate(0, 0)}
                50%{transform: translate(-10px, 0)}
                100%{transform: translate(0, 0)}
            }

            .triangle-float1 {
                animation: float1 5s infinite;
            }

            @keyframes float2 {
                0%{transform: translate(0, 0)}
                50%{transform: translate(-5px, -5px)}
                100%{transform: translate(0, 0)}
            }

            .triangle-float2 {
                animation: float2 4s infinite;
            }

            @keyframes float3 {
                0%{transform: translate(0, 0)}
                50%{transform: translate(0, -10px)}
                100%{transform: translate(0, 0)}
            }

            .triangle-float3 {
                animation: float3 6s infinite;
            }
        </style></defs></svg>